<svg xmlns="http://www.w3.org/2000/svg" xmlns:xlink="http://www.w3.org/1999/xlink" width="37.265" height="19.639" viewBox="0 0 37.265 19.639">
  <defs>
    <linearGradient id="linear-gradient" x1="0.963" y1="0.436" x2="0" y2="0.449" gradientUnits="objectBoundingBox">
      <stop offset="0" stop-color="#a67acc"/>
      <stop offset="1" stop-color="#5c1da5"/>
    </linearGradient>
  </defs>
  <g id="Group_326" data-name="Group 326" transform="translate(13253.553 -1517.681)">
    <path id="Subtraction_113" data-name="Subtraction 113" d="M27.613,19.339H0V0H27.613V.608a.875.875,0,0,0-.619.423,1.67,1.67,0,0,0-.253.91,1.67,1.67,0,0,0,.253.91.875.875,0,0,0,.619.423v.454a.875.875,0,0,0-.619.423,1.67,1.67,0,0,0-.253.91,1.67,1.67,0,0,0,.253.91.875.875,0,0,0,.619.423v.454a.875.875,0,0,0-.619.423,1.762,1.762,0,0,0,0,1.819.875.875,0,0,0,.619.423v.454a.875.875,0,0,0-.619.423,1.762,1.762,0,0,0,0,1.819.875.875,0,0,0,.619.423v.454a.875.875,0,0,0-.619.423,1.762,1.762,0,0,0,0,1.819.875.875,0,0,0,.619.423V16.2a.875.875,0,0,0-.619.423,1.762,1.762,0,0,0,0,1.819.875.875,0,0,0,.619.423v.468h0Z" transform="translate(-13244.051 1517.831)" fill="#f6efff" stroke="#f3a49d" stroke-width="0.3"/>
    <path id="Subtraction_114" data-name="Subtraction 114" d="M9.351,19.338H0v-.472a.664.664,0,0,0,.446-.423,2.177,2.177,0,0,0,.182-.91,2.177,2.177,0,0,0-.182-.91A.664.664,0,0,0,0,16.2v-.454a.664.664,0,0,0,.446-.423,2.176,2.176,0,0,0,.182-.91,2.177,2.177,0,0,0-.182-.91A.664.664,0,0,0,0,13.083v-.454a.664.664,0,0,0,.446-.423,2.177,2.177,0,0,0,.182-.91,2.177,2.177,0,0,0-.182-.91A.664.664,0,0,0,0,9.964V9.51a.664.664,0,0,0,.446-.423,2.177,2.177,0,0,0,.182-.91,2.176,2.176,0,0,0-.182-.91A.664.664,0,0,0,0,6.845V6.392a.664.664,0,0,0,.446-.423,2.177,2.177,0,0,0,.182-.91,2.177,2.177,0,0,0-.182-.91A.664.664,0,0,0,0,3.726V3.273A.664.664,0,0,0,.446,2.85a2.177,2.177,0,0,0,.182-.91,2.176,2.176,0,0,0-.182-.91A.664.664,0,0,0,0,.608V0H9.351V19.338Z" transform="translate(-13253.402 1517.831)" stroke="#f3a49d" stroke-width="0.3" fill="url(#linear-gradient)"/>
  </g>
</svg>
