<svg xmlns="http://www.w3.org/2000/svg" xmlns:xlink="http://www.w3.org/1999/xlink" width="220.283" height="79.644" viewBox="0 0 220.283 79.644">
  <defs>
    <linearGradient id="linear-gradient" x1="0.963" y1="0.436" x2="0" y2="0.449" gradientUnits="objectBoundingBox">
      <stop offset="0" stop-color="#a67acc"/>
      <stop offset="1" stop-color="#5c1da5"/>
    </linearGradient>
  </defs>
  <g id="Group_327" data-name="Group 327" transform="translate(13235.42 -1244.957)">
    <path id="Subtraction_74" data-name="Subtraction 74" d="M158.548,78.627H0V0H158.548V2.472a5.436,5.436,0,0,0,0,10.837v1.845a5.436,5.436,0,0,0,0,10.838v1.845a5.436,5.436,0,0,0,0,10.837V40.52a5.436,5.436,0,0,0,0,10.838V53.2a5.436,5.436,0,0,0,0,10.837v1.845a5.436,5.436,0,0,0,0,10.838v1.9h0Z" transform="translate(-13174.185 1245.457)" fill="#f6efff" stroke="#f3a49d" stroke-width="1"/>
    <path id="Subtraction_73" data-name="Subtraction 73" d="M74.616,78.644H0V76.724a5.414,5.414,0,0,0,3.557-1.719,5.418,5.418,0,0,0,1.454-3.7,5.418,5.418,0,0,0-1.454-3.7A5.415,5.415,0,0,0,0,65.885V64.041a5.414,5.414,0,0,0,3.557-1.719,5.417,5.417,0,0,0,1.454-3.7,5.418,5.418,0,0,0-1.454-3.7A5.415,5.415,0,0,0,0,53.2V51.358A5.414,5.414,0,0,0,3.557,49.64a5.418,5.418,0,0,0,1.454-3.7,5.418,5.418,0,0,0-1.454-3.7A5.415,5.415,0,0,0,0,40.519V38.675a5.414,5.414,0,0,0,3.557-1.719,5.418,5.418,0,0,0,1.454-3.7,5.417,5.417,0,0,0-1.454-3.7A5.415,5.415,0,0,0,0,27.837V25.993a5.414,5.414,0,0,0,3.557-1.719,5.418,5.418,0,0,0,1.454-3.7,5.418,5.418,0,0,0-1.454-3.7A5.415,5.415,0,0,0,0,15.154V13.309a5.414,5.414,0,0,0,3.557-1.719,5.418,5.418,0,0,0,1.454-3.7,5.417,5.417,0,0,0-1.454-3.7A5.415,5.415,0,0,0,0,2.471V0H74.616V78.644Z" transform="translate(-13234.92 1245.457)" stroke="#f3a49d" stroke-width="1" fill="url(#linear-gradient)"/>
  </g>
</svg>
