<svg xmlns="http://www.w3.org/2000/svg" xmlns:xlink="http://www.w3.org/1999/xlink" width="18.05" height="19" viewBox="0 0 18.05 19">
  <defs>
    <linearGradient id="linear-gradient" x1="0.5" x2="0.5" y2="1.829" gradientUnits="objectBoundingBox">
      <stop offset="0" stop-color="#c148ff"/>
      <stop offset="1" stop-color="#530c7c"/>
    </linearGradient>
  </defs>
  <path id="Home" d="M6.312,17.843V14.929a1.348,1.348,0,0,1,1.344-1.343h2.73a1.348,1.348,0,0,1,1.352,1.343h0v2.905A1.17,1.17,0,0,0,12.9,19h1.863a3.287,3.287,0,0,0,2.321-.949,3.24,3.24,0,0,0,.962-2.3V7.473A2.349,2.349,0,0,0,17.2,5.665L10.871.641a2.959,2.959,0,0,0-3.76.068L.919,5.665A2.351,2.351,0,0,0,0,7.473V15.74A3.272,3.272,0,0,0,3.283,19H5.1a1.17,1.17,0,0,0,.83-.336,1.153,1.153,0,0,0,.344-.821Z" opacity="0.6" fill="url(#linear-gradient)"/>
</svg>
