<svg xmlns="http://www.w3.org/2000/svg" xmlns:xlink="http://www.w3.org/1999/xlink" width="33.103" height="37" viewBox="0 0 33.103 37">
  <defs>
    <linearGradient id="linear-gradient" x1="0.5" x2="0.5" y2="1.465" gradientUnits="objectBoundingBox">
      <stop offset="0" stop-color="#c148ff"/>
      <stop offset="1" stop-color="#530c7c"/>
    </linearGradient>
  </defs>
  <path id="Union_18" data-name="Union 18" d="M19.149,37h-5.6l-1.8-.119a39.457,39.457,0,0,1-5.1-.676C4.3,35.7,1.48,34.8.473,32.827a3.991,3.991,0,0,1-.466-1.537,3.576,3.576,0,0,1,0-.439,3.251,3.251,0,0,1,0-.439,3.968,3.968,0,0,1,.448-1.554c1.006-2.028,3.825-2.94,6.178-3.379a34.678,34.678,0,0,1,5.1-.676l1.8-.135h6.034l1.8.135a34.678,34.678,0,0,1,5.1.676c2.353.507,5.171,1.4,6.177,3.379a3.969,3.969,0,0,1,.449,1.554,3.25,3.25,0,0,1,0,.439,3.2,3.2,0,0,1,.018.405,4.4,4.4,0,0,1-.449,1.571c-1.005,2.028-3.825,2.923-6.177,3.379a39.478,39.478,0,0,1-5.1.676L19.58,37ZM6.206,10.278A10.345,10.345,0,1,1,16.55,20.555,10.311,10.311,0,0,1,6.206,10.278Z" fill="url(#linear-gradient)"/>
</svg>
