<svg xmlns="http://www.w3.org/2000/svg" xmlns:xlink="http://www.w3.org/1999/xlink" width="17.502" height="19.447" viewBox="0 0 17.502 19.447">
  <defs>
    <linearGradient id="linear-gradient" x1="0.5" x2="0.5" y2="1.699" gradientUnits="objectBoundingBox">
      <stop offset="0" stop-color="#c148ff"/>
      <stop offset="1" stop-color="#530c7c"/>
    </linearGradient>
  </defs>
  <path id="Union_17" data-name="Union 17" d="M10.125,19.447H7.163l-.95-.062a21.028,21.028,0,0,1-2.7-.356C2.273,18.763.782,18.292.25,17.254A2.1,2.1,0,0,1,0,16.446a1.983,1.983,0,0,1,0-.231,1.968,1.968,0,0,1,0-.23,2.087,2.087,0,0,1,.238-.817c.532-1.066,2.022-1.545,3.266-1.776a18.459,18.459,0,0,1,2.7-.355l.95-.071h3.191l.95.071a18.459,18.459,0,0,1,2.7.355c1.244.266,2.734.737,3.266,1.776a2.1,2.1,0,0,1,.238.817,1.967,1.967,0,0,1,0,.23,1.879,1.879,0,0,1,.009.213,2.293,2.293,0,0,1-.238.826C16.734,18.319,15.242,18.79,14,19.03a21.035,21.035,0,0,1-2.7.356l-.95.062ZM3.281,5.4a5.47,5.47,0,0,1,10.939,0,5.47,5.47,0,0,1-10.939,0Z" opacity="0.6" fill="url(#linear-gradient)"/>
</svg>
